<svg xmlns="http://www.w3.org/2000/svg" viewBox="0 0 114.64 114.59"><defs><style>.cls-1{fill:#000105;}.cls-2{fill:#ebb059;}.cls-3{fill:#fff;}</style></defs><title>Ресурс 3</title><g id="Слой_2" data-name="Слой 2"><g id="Слой_1-2" data-name="Слой 1"><path class="cls-1" d="M81.39,96.43a45.76,45.76,0,0,1-10.65,4.95l-5.09,12.55-7.55.66L50.9,103.1c-1.31-.16-2.6-.39-3.87-.67l-10.68,8.33-6.87-3.21L29,94c-1-.8-2-1.64-3-2.52L12.56,93.36,8.21,87.15l6.35-12c-.51-1.2-1-2.44-1.35-3.69L.66,66.39,0,58.85l11.49-7.2c.16-1.31.39-2.6.67-3.87L3.83,37.09,7,30.23l13.54-.49a46.16,46.16,0,0,1,7.77-7.91l2.57,3.62A41.41,41.41,0,0,0,78.82,92.82Z"/><path class="cls-2" d="M56.92,20.22A37.45,37.45,0,1,0,94.37,57.67,37.45,37.45,0,0,0,56.92,20.22Zm0,52A14.57,14.57,0,1,1,71.49,57.67,14.57,14.57,0,0,1,56.92,72.24Z"/><ellipse class="cls-3" cx="30.75" cy="37.09" rx="1.4" ry="4.56" transform="translate(-11.86 14.61) rotate(-22.52)"/><ellipse class="cls-3" cx="45.42" cy="31" rx="1.4" ry="4.56" transform="translate(-8.41 19.77) rotate(-22.52)"/><ellipse class="cls-3" cx="60.1" cy="24.92" rx="1.4" ry="4.56" transform="translate(-4.96 24.92) rotate(-22.52)"/><ellipse class="cls-3" cx="27.34" cy="49.61" rx="1.4" ry="4.56" transform="translate(-16.92 14.26) rotate(-22.52)"/><ellipse class="cls-3" cx="42.02" cy="43.52" rx="1.4" ry="4.56" transform="translate(-13.47 19.42) rotate(-22.52)"/><ellipse class="cls-3" cx="56.69" cy="37.44" rx="1.4" ry="4.56" transform="translate(-10.02 24.57) rotate(-22.52)"/><ellipse class="cls-3" cx="71.37" cy="31.35" rx="1.4" ry="4.56" transform="translate(-6.57 29.73) rotate(-22.52)"/><ellipse class="cls-3" cx="23.42" cy="60.88" rx="1.4" ry="4.56" transform="translate(-21.54 13.61) rotate(-22.52)"/><ellipse class="cls-3" cx="38.09" cy="54.79" rx="1.4" ry="4.56" transform="translate(-18.08 18.77) rotate(-22.52)"/><ellipse class="cls-3" cx="67.44" cy="42.62" rx="1.4" ry="4.56" transform="translate(-11.18 29.09) rotate(-22.52)"/><ellipse class="cls-3" cx="82.11" cy="36.54" rx="1.4" ry="4.56" transform="translate(-7.73 34.24) rotate(-22.52)"/><ellipse class="cls-3" cx="34.68" cy="67.31" rx="1.4" ry="4.56" transform="translate(-23.14 18.42) rotate(-22.52)"/><ellipse class="cls-3" cx="78.71" cy="49.05" rx="1.4" ry="4.56" transform="translate(-12.79 33.89) rotate(-22.52)"/><ellipse class="cls-3" cx="30.76" cy="78.58" rx="1.4" ry="4.56" transform="translate(-27.76 17.78) rotate(-22.52)"/><ellipse class="cls-3" cx="45.43" cy="72.5" rx="1.4" ry="4.56" transform="translate(-24.31 22.93) rotate(-22.52)"/><ellipse class="cls-3" cx="74.78" cy="60.32" rx="1.4" ry="4.56" transform="translate(-17.4 33.25) rotate(-22.52)"/><ellipse class="cls-3" cx="89.46" cy="54.24" rx="1.4" ry="4.56" transform="translate(-13.95 38.41) rotate(-22.52)"/><ellipse class="cls-3" cx="42.02" cy="85.01" rx="1.4" ry="4.56" transform="translate(-29.36 22.58) rotate(-22.52)"/><ellipse class="cls-3" cx="56.7" cy="78.93" rx="1.4" ry="4.56" transform="translate(-25.91 27.74) rotate(-22.52)"/><ellipse class="cls-3" cx="71.37" cy="72.84" rx="1.4" ry="4.56" transform="translate(-22.46 32.9) rotate(-22.52)"/><ellipse class="cls-3" cx="86.05" cy="66.76" rx="1.4" ry="4.56" transform="translate(-19.01 38.06) rotate(-22.52)"/><ellipse class="cls-3" cx="52.77" cy="90.2" rx="1.4" ry="4.56" transform="translate(-30.53 27.1) rotate(-22.52)"/><ellipse class="cls-3" cx="67.45" cy="84.11" rx="1.4" ry="4.56" transform="translate(-27.08 32.25) rotate(-22.52)"/><ellipse class="cls-3" cx="82.12" cy="78.03" rx="1.4" ry="4.56" transform="translate(-23.63 37.41) rotate(-22.52)"/><path class="cls-1" d="M113.72,68.72,105.2,80.53l3.74,2.52L95.86,93.71,91.19,88.1a46.07,46.07,0,0,1-5.92,5.59L82.7,90.08A41.42,41.42,0,0,0,34.77,22.67L32.2,19.06a46.11,46.11,0,0,1,8.17-4.15L38.06,3,52.55,4.49,52.86,0,66.47,5.17,67.94.91,79.75,9.43,82.26,5.7,91.46,17l3.4-3,6,13.28,4-2,2.33,14.37,4.42-.86-1.48,14.48,4.5.32-5.18,13.6Z"/></g></g></svg>