<?xml version="1.0" standalone="no"?>
<!DOCTYPE svg PUBLIC "-//W3C//DTD SVG 20010904//EN"
 "http://www.w3.org/TR/2001/REC-SVG-20010904/DTD/svg10.dtd">
<svg version="1.0" xmlns="http://www.w3.org/2000/svg"
 width="700.000000pt" height="700.000000pt" viewBox="0 0 700.000000 700.000000"
 preserveAspectRatio="xMidYMid meet">
<metadata>
Created by potrace 1.14, written by Peter Selinger 2001-2017
</metadata>
<g transform="translate(0.000000,700.000000) scale(0.100000,-0.100000)"
fill="#000000" stroke="none">
<path d="M3228 6982 c-3 -9 -6 -46 -7 -82 -1 -36 -4 -74 -6 -85 -2 -11 -4 -35
-4 -53 l-1 -34 -79 6 c-43 4 -94 8 -112 11 -93 10 -158 17 -199 21 -25 2 -61
6 -80 8 -19 3 -66 8 -105 12 -38 3 -81 7 -95 9 -14 2 -57 7 -97 10 -40 4 -83
8 -96 9 l-23 3 19 -96 c10 -53 27 -141 38 -196 64 -335 77 -401 80 -414 4 -16
-9 -24 -183 -105 -115 -53 -308 -161 -308 -172 0 -8 140 -203 150 -209 5 -3
51 18 102 48 272 155 590 266 873 303 28 3 53 8 56 10 11 6 221 18 324 18 117
0 263 -11 355 -25 36 -6 79 -13 96 -15 71 -9 313 -76 418 -114 206 -77 502
-236 638 -344 15 -11 44 -34 65 -51 81 -64 211 -185 280 -261 61 -67 99 -113
186 -224 22 -28 117 -171 117 -175 0 -3 12 -24 27 -48 24 -38 85 -158 141
-277 69 -148 152 -448 178 -640 4 -30 9 -64 11 -75 11 -63 10 -471 -2 -565
-14 -110 -23 -165 -30 -190 -2 -8 -7 -31 -10 -50 -3 -19 -17 -77 -31 -128 -69
-262 -173 -495 -329 -737 -110 -171 -325 -413 -487 -550 l-48 -40 75 -104 c41
-57 77 -106 79 -109 8 -7 174 139 270 237 49 50 92 91 95 91 4 0 13 -8 21 -18
8 -9 58 -69 110 -132 52 -63 103 -124 112 -134 10 -11 18 -23 18 -27 0 -11 33
-21 39 -12 3 5 73 62 154 128 228 184 270 218 442 359 87 72 166 136 173 142
12 8 -8 26 -96 85 -61 41 -111 77 -112 81 0 5 115 167 255 360 140 194 255
355 255 358 0 3 -56 25 -125 49 -69 24 -125 49 -125 55 0 6 60 169 134 361 73
193 143 376 154 408 l22 57 -48 2 c-26 0 -58 2 -72 4 -14 1 -54 4 -89 5 l-63
3 7 88 c3 48 8 98 10 110 2 13 6 55 10 93 3 39 8 88 10 110 6 55 14 140 21
205 3 30 7 69 9 85 2 17 7 67 11 113 l6 83 -23 -6 c-73 -17 -233 -44 -240 -40
-4 3 -11 27 -14 53 -4 26 -9 58 -11 72 -2 14 -11 68 -19 120 -9 52 -31 190
-50 305 -19 116 -38 228 -41 250 -4 22 -7 46 -7 53 0 18 -7 16 -126 -43 -61
-30 -114 -55 -118 -55 -5 0 -33 55 -63 123 -30 67 -75 167 -100 222 -26 55
-82 180 -126 277 -43 98 -82 178 -85 178 -3 0 -18 -12 -35 -28 -110 -104 -173
-152 -181 -139 -9 15 -58 77 -109 136 -16 20 -117 144 -224 276 -106 132 -198
246 -205 253 -10 11 -27 -9 -86 -97 -41 -61 -77 -111 -80 -111 -4 0 -164 113
-355 251 -192 138 -354 253 -360 256 -6 2 -16 -15 -23 -39 -7 -24 -26 -82 -43
-129 l-31 -85 -56 21 c-106 42 -266 103 -351 134 -47 18 -94 36 -105 41 -11 5
-74 29 -140 54 -66 24 -132 49 -146 54 -22 9 -28 8 -31 -6z"/>
<path d="M3367 5764 c-1 -1 -38 -4 -82 -8 -44 -3 -91 -8 -105 -10 -14 -3 -43
-7 -65 -11 -348 -50 -715 -207 -1025 -439 -108 -81 -319 -287 -401 -391 -269
-342 -438 -751 -487 -1180 -9 -82 -9 -424 1 -510 41 -361 191 -754 401 -1050
294 -415 709 -719 1186 -869 85 -27 214 -59 280 -70 19 -3 44 -7 55 -10 133
-27 640 -28 685 -1 3 1 28 6 55 9 205 27 503 132 720 253 499 279 872 728
1058 1273 45 130 91 337 103 460 3 30 7 71 9 90 11 92 5 354 -10 460 -42 283
-98 474 -209 705 -154 320 -340 553 -647 810 -115 97 -325 221 -514 306 -118
52 -343 121 -470 143 -16 3 -41 8 -54 11 -74 14 -238 27 -369 29 -63 0 -114 0
-115 0z m279 -1412 c496 -103 810 -590 694 -1078 -18 -77 -98 -269 -118 -284
-4 -3 -20 -24 -36 -48 -34 -50 -145 -156 -209 -200 -54 -38 -174 -95 -242
-116 -317 -97 -692 5 -910 246 -158 175 -236 377 -236 608 0 58 3 119 6 135
43 226 150 410 326 559 80 68 265 157 359 172 19 4 55 9 80 13 61 10 223 6
286 -7z"/>
<path d="M1719 5663 c-2 -4 -31 -30 -64 -58 -86 -72 -238 -226 -329 -333 l-79
-92 -71 -1 c-39 -1 -100 -2 -136 -4 -36 -1 -159 -5 -275 -10 -289 -10 -335
-12 -339 -16 -2 -2 -27 -56 -56 -119 -29 -63 -70 -152 -91 -198 -22 -45 -39
-88 -39 -95 0 -10 117 -164 302 -398 220 -279 203 -245 183 -349 -8 -41 -13
-73 -19 -111 -6 -35 -16 -42 -356 -255 l-351 -219 5 -45 c3 -25 8 -75 11 -112
3 -38 7 -98 10 -135 6 -76 16 -167 18 -169 1 -1 166 -68 367 -149 200 -81 372
-151 382 -156 10 -5 21 -22 25 -37 3 -15 21 -64 39 -110 l33 -83 -45 -86 c-54
-103 -125 -236 -169 -318 -18 -33 -64 -121 -103 -196 -69 -132 -71 -137 -54
-157 9 -11 69 -96 132 -187 l115 -167 55 6 c30 4 66 8 80 11 54 8 177 26 215
31 22 3 90 12 150 20 61 9 126 18 145 20 19 3 46 7 60 9 14 3 46 7 72 11 l47
6 91 -78 c85 -74 90 -80 91 -118 1 -23 2 -66 4 -96 1 -30 6 -147 10 -260 4
-113 8 -243 10 -290 2 -47 4 -97 4 -112 1 -29 0 -28 287 -162 120 -56 148 -64
159 -47 3 5 111 92 241 193 130 101 268 209 307 241 76 61 81 62 180 41 12 -3
42 -7 67 -10 25 -3 53 -11 62 -17 14 -9 284 -431 342 -532 6 -11 13 -22 16
-25 3 -3 24 -35 45 -72 l40 -68 65 5 c36 3 83 7 105 10 22 2 81 7 130 11 50 4
99 8 110 10 11 1 27 3 36 3 11 1 30 34 58 104 23 56 46 111 51 122 5 11 48
117 95 235 48 118 95 235 105 259 16 40 24 47 72 64 203 74 430 181 556 260
l42 27 -31 43 c-17 23 -52 72 -78 109 l-48 66 -69 -40 c-60 -36 -214 -111
-324 -160 -84 -38 -347 -118 -435 -133 -243 -43 -310 -50 -510 -50 -238 1
-423 22 -615 71 -188 48 -338 103 -517 191 -698 342 -1208 1010 -1357 1778
-24 125 -24 126 -41 300 -5 53 -5 318 0 375 10 110 20 182 40 295 74 406 287
846 565 1166 72 83 225 234 287 284 l49 39 -74 106 c-86 122 -89 125 -93 113z"/>
</g>
</svg>
